<svg width="137" height="34" viewBox="0 0 137 34" fill="none" xmlns="http://www.w3.org/2000/svg">
<rect width="137" height="34" fill="#F5F5F5"/>
<g clip-path="url(#clip0_0_1)">
<rect width="137" height="34" fill="#1BDCE8"/>
<mask id="path-1-outside-1_0_1" maskUnits="userSpaceOnUse" x="2" y="-1" width="120" height="37" fill="black">
<rect fill="white" x="2" y="-1" width="120" height="37"/>
<path d="M10.7159 32H7.02273L17.7045 2.90909H21.3409L32.0227 32H28.3295L19.6364 7.51136H19.4091L10.7159 32ZM12.0795 20.6364H26.9659V23.7614H12.0795V20.6364ZM36.554 32V2.90909H39.9062V13.6477H40.1903C40.4366 13.2689 40.7775 12.786 41.2131 12.1989C41.6581 11.6023 42.2926 11.072 43.1165 10.608C43.9498 10.1345 45.0767 9.89773 46.4972 9.89773C48.3343 9.89773 49.9536 10.357 51.3551 11.2756C52.7566 12.1941 53.8504 13.4962 54.6364 15.1818C55.4223 16.8674 55.8153 18.8561 55.8153 21.1477C55.8153 23.4583 55.4223 25.4612 54.6364 27.1562C53.8504 28.8419 52.7614 30.1487 51.3693 31.0767C49.9773 31.9953 48.3722 32.4545 46.554 32.4545C45.1525 32.4545 44.0303 32.2225 43.1875 31.7585C42.3447 31.285 41.696 30.75 41.2415 30.1534C40.7869 29.5473 40.4366 29.0455 40.1903 28.6477H39.7926V32H36.554ZM39.8494 21.0909C39.8494 22.7386 40.0909 24.1922 40.5739 25.4517C41.0568 26.7017 41.7623 27.6818 42.6903 28.392C43.6184 29.0928 44.7547 29.4432 46.0994 29.4432C47.5009 29.4432 48.6705 29.0739 49.608 28.3352C50.5549 27.5871 51.2652 26.5833 51.7386 25.3239C52.2216 24.0549 52.4631 22.6439 52.4631 21.0909C52.4631 19.5568 52.2263 18.1742 51.7528 16.9432C51.2888 15.7027 50.5833 14.7225 49.6364 14.0028C48.6989 13.2737 47.5199 12.9091 46.0994 12.9091C44.7358 12.9091 43.59 13.2547 42.6619 13.946C41.7339 14.6278 41.0331 15.5843 40.5597 16.8153C40.0862 18.0369 39.8494 19.4621 39.8494 21.0909ZM69.8068 32.4545C67.8371 32.4545 66.1089 31.9858 64.6222 31.0483C63.1449 30.1108 61.9896 28.7992 61.1562 27.1136C60.3324 25.428 59.9205 23.4583 59.9205 21.2045C59.9205 18.9318 60.3324 16.9479 61.1562 15.2528C61.9896 13.5578 63.1449 12.2415 64.6222 11.304C66.1089 10.3665 67.8371 9.89773 69.8068 9.89773C71.7765 9.89773 73.5 10.3665 74.9773 11.304C76.464 12.2415 77.6193 13.5578 78.4432 15.2528C79.2765 16.9479 79.6932 18.9318 79.6932 21.2045C79.6932 23.4583 79.2765 25.428 78.4432 27.1136C77.6193 28.7992 76.464 30.1108 74.9773 31.0483C73.5 31.9858 71.7765 32.4545 69.8068 32.4545ZM69.8068 29.4432C71.303 29.4432 72.5341 29.0597 73.5 28.2926C74.4659 27.5256 75.1809 26.517 75.6449 25.267C76.1089 24.017 76.3409 22.6629 76.3409 21.2045C76.3409 19.7462 76.1089 18.3873 75.6449 17.1278C75.1809 15.8684 74.4659 14.8504 73.5 14.0739C72.5341 13.2973 71.303 12.9091 69.8068 12.9091C68.3106 12.9091 67.0795 13.2973 66.1136 14.0739C65.1477 14.8504 64.4328 15.8684 63.9688 17.1278C63.5047 18.3873 63.2727 19.7462 63.2727 21.2045C63.2727 22.6629 63.5047 24.017 63.9688 25.267C64.4328 26.517 65.1477 27.5256 66.1136 28.2926C67.0795 29.0597 68.3106 29.4432 69.8068 29.4432ZM98.5604 23.0795V10.1818H101.913V32H98.5604V28.3068H98.3331C97.8217 29.4148 97.0263 30.357 95.9467 31.1335C94.8672 31.9006 93.5036 32.2841 91.8558 32.2841C90.4922 32.2841 89.2801 31.9858 88.2195 31.3892C87.1589 30.7831 86.3255 29.8741 85.7195 28.6619C85.1134 27.4403 84.8104 25.9015 84.8104 24.0455V10.1818H88.1626V23.8182C88.1626 25.4091 88.6077 26.678 89.4979 27.625C90.3975 28.572 91.5433 29.0455 92.9354 29.0455C93.7687 29.0455 94.6162 28.8324 95.478 28.4062C96.3492 27.9801 97.0784 27.3267 97.6655 26.446C98.2621 25.5653 98.5604 24.4432 98.5604 23.0795ZM117.541 10.1818V13.0227H106.234V10.1818H117.541ZM109.53 4.95455H112.882V25.75C112.882 26.697 113.019 27.4072 113.294 27.8807C113.578 28.3447 113.938 28.6572 114.374 28.8182C114.819 28.9697 115.287 29.0455 115.78 29.0455C116.149 29.0455 116.452 29.0265 116.689 28.9886C116.926 28.9413 117.115 28.9034 117.257 28.875L117.939 31.8864C117.712 31.9716 117.394 32.0568 116.987 32.142C116.58 32.2367 116.064 32.2841 115.439 32.2841C114.492 32.2841 113.564 32.0805 112.655 31.6733C111.755 31.2661 111.007 30.6458 110.411 29.8125C109.823 28.9792 109.53 27.928 109.53 26.6591V4.95455Z"/>
</mask>
<path d="M10.7159 32H7.02273L17.7045 2.90909H21.3409L32.0227 32H28.3295L19.6364 7.51136H19.4091L10.7159 32ZM12.0795 20.6364H26.9659V23.7614H12.0795V20.6364ZM36.554 32V2.90909H39.9062V13.6477H40.1903C40.4366 13.2689 40.7775 12.786 41.2131 12.1989C41.6581 11.6023 42.2926 11.072 43.1165 10.608C43.9498 10.1345 45.0767 9.89773 46.4972 9.89773C48.3343 9.89773 49.9536 10.357 51.3551 11.2756C52.7566 12.1941 53.8504 13.4962 54.6364 15.1818C55.4223 16.8674 55.8153 18.8561 55.8153 21.1477C55.8153 23.4583 55.4223 25.4612 54.6364 27.1562C53.8504 28.8419 52.7614 30.1487 51.3693 31.0767C49.9773 31.9953 48.3722 32.4545 46.554 32.4545C45.1525 32.4545 44.0303 32.2225 43.1875 31.7585C42.3447 31.285 41.696 30.75 41.2415 30.1534C40.7869 29.5473 40.4366 29.0455 40.1903 28.6477H39.7926V32H36.554ZM39.8494 21.0909C39.8494 22.7386 40.0909 24.1922 40.5739 25.4517C41.0568 26.7017 41.7623 27.6818 42.6903 28.392C43.6184 29.0928 44.7547 29.4432 46.0994 29.4432C47.5009 29.4432 48.6705 29.0739 49.608 28.3352C50.5549 27.5871 51.2652 26.5833 51.7386 25.3239C52.2216 24.0549 52.4631 22.6439 52.4631 21.0909C52.4631 19.5568 52.2263 18.1742 51.7528 16.9432C51.2888 15.7027 50.5833 14.7225 49.6364 14.0028C48.6989 13.2737 47.5199 12.9091 46.0994 12.9091C44.7358 12.9091 43.59 13.2547 42.6619 13.946C41.7339 14.6278 41.0331 15.5843 40.5597 16.8153C40.0862 18.0369 39.8494 19.4621 39.8494 21.0909ZM69.8068 32.4545C67.8371 32.4545 66.1089 31.9858 64.6222 31.0483C63.1449 30.1108 61.9896 28.7992 61.1562 27.1136C60.3324 25.428 59.9205 23.4583 59.9205 21.2045C59.9205 18.9318 60.3324 16.9479 61.1562 15.2528C61.9896 13.5578 63.1449 12.2415 64.6222 11.304C66.1089 10.3665 67.8371 9.89773 69.8068 9.89773C71.7765 9.89773 73.5 10.3665 74.9773 11.304C76.464 12.2415 77.6193 13.5578 78.4432 15.2528C79.2765 16.9479 79.6932 18.9318 79.6932 21.2045C79.6932 23.4583 79.2765 25.428 78.4432 27.1136C77.6193 28.7992 76.464 30.1108 74.9773 31.0483C73.5 31.9858 71.7765 32.4545 69.8068 32.4545ZM69.8068 29.4432C71.303 29.4432 72.5341 29.0597 73.5 28.2926C74.4659 27.5256 75.1809 26.517 75.6449 25.267C76.1089 24.017 76.3409 22.6629 76.3409 21.2045C76.3409 19.7462 76.1089 18.3873 75.6449 17.1278C75.1809 15.8684 74.4659 14.8504 73.5 14.0739C72.5341 13.2973 71.303 12.9091 69.8068 12.9091C68.3106 12.9091 67.0795 13.2973 66.1136 14.0739C65.1477 14.8504 64.4328 15.8684 63.9688 17.1278C63.5047 18.3873 63.2727 19.7462 63.2727 21.2045C63.2727 22.6629 63.5047 24.017 63.9688 25.267C64.4328 26.517 65.1477 27.5256 66.1136 28.2926C67.0795 29.0597 68.3106 29.4432 69.8068 29.4432ZM98.5604 23.0795V10.1818H101.913V32H98.5604V28.3068H98.3331C97.8217 29.4148 97.0263 30.357 95.9467 31.1335C94.8672 31.9006 93.5036 32.2841 91.8558 32.2841C90.4922 32.2841 89.2801 31.9858 88.2195 31.3892C87.1589 30.7831 86.3255 29.8741 85.7195 28.6619C85.1134 27.4403 84.8104 25.9015 84.8104 24.0455V10.1818H88.1626V23.8182C88.1626 25.4091 88.6077 26.678 89.4979 27.625C90.3975 28.572 91.5433 29.0455 92.9354 29.0455C93.7687 29.0455 94.6162 28.8324 95.478 28.4062C96.3492 27.9801 97.0784 27.3267 97.6655 26.446C98.2621 25.5653 98.5604 24.4432 98.5604 23.0795ZM117.541 10.1818V13.0227H106.234V10.1818H117.541ZM109.53 4.95455H112.882V25.75C112.882 26.697 113.019 27.4072 113.294 27.8807C113.578 28.3447 113.938 28.6572 114.374 28.8182C114.819 28.9697 115.287 29.0455 115.78 29.0455C116.149 29.0455 116.452 29.0265 116.689 28.9886C116.926 28.9413 117.115 28.9034 117.257 28.875L117.939 31.8864C117.712 31.9716 117.394 32.0568 116.987 32.142C116.58 32.2367 116.064 32.2841 115.439 32.2841C114.492 32.2841 113.564 32.0805 112.655 31.6733C111.755 31.2661 111.007 30.6458 110.411 29.8125C109.823 28.9792 109.53 27.928 109.53 26.6591V4.95455Z" fill="white"/>
<path d="M10.7159 32V35H12.8344L13.5431 33.0036L10.7159 32ZM7.02273 32L4.20657 30.9659L2.72532 35H7.02273V32ZM17.7045 2.90909V-0.09091H15.6103L14.8884 1.87503L17.7045 2.90909ZM21.3409 2.90909L24.1571 1.87503L23.4352 -0.09091H21.3409V2.90909ZM32.0227 32V35H36.3201L34.8389 30.9659L32.0227 32ZM28.3295 32L25.5024 33.0036L26.2111 35H28.3295V32ZM19.6364 7.51136L22.4635 6.50776L21.7548 4.51136H19.6364V7.51136ZM19.4091 7.51136V4.51136H17.2906L16.5819 6.50776L19.4091 7.51136ZM12.0795 20.6364V17.6364H9.07955V20.6364H12.0795ZM26.9659 20.6364H29.9659V17.6364H26.9659V20.6364ZM26.9659 23.7614V26.7614H29.9659V23.7614H26.9659ZM12.0795 23.7614H9.07955V26.7614H12.0795V23.7614ZM10.7159 29H7.02273V35H10.7159V29ZM9.83888 33.0341L20.5207 3.94315L14.8884 1.87503L4.20657 30.9659L9.83888 33.0341ZM17.7045 5.90909H21.3409V-0.09091H17.7045V5.90909ZM18.5248 3.94315L29.2066 33.0341L34.8389 30.9659L24.1571 1.87503L18.5248 3.94315ZM32.0227 29H28.3295V35H32.0227V29ZM31.1567 30.9964L22.4635 6.50776L16.8092 8.51497L25.5024 33.0036L31.1567 30.9964ZM19.6364 4.51136H19.4091V10.5114H19.6364V4.51136ZM16.5819 6.50776L7.88876 30.9964L13.5431 33.0036L22.2362 8.51497L16.5819 6.50776ZM12.0795 23.6364H26.9659V17.6364H12.0795V23.6364ZM23.9659 20.6364V23.7614H29.9659V20.6364H23.9659ZM26.9659 20.7614H12.0795V26.7614H26.9659V20.7614ZM15.0795 23.7614V20.6364H9.07955V23.7614H15.0795ZM36.554 32H33.554V35H36.554V32ZM36.554 2.90909V-0.09091H33.554V2.90909H36.554ZM39.9062 2.90909H42.9062V-0.09091H39.9062V2.90909ZM39.9062 13.6477H36.9062V16.6477H39.9062V13.6477ZM40.1903 13.6477V16.6477H41.8184L42.7057 15.2827L40.1903 13.6477ZM41.2131 12.1989L38.8085 10.405L38.8038 10.4113L41.2131 12.1989ZM43.1165 10.608L44.5887 13.2219L44.5985 13.2163L43.1165 10.608ZM51.3551 11.2756L52.9996 8.76645L52.9996 8.76645L51.3551 11.2756ZM54.6364 27.1562L57.3553 28.4241L57.358 28.4182L54.6364 27.1562ZM51.3693 31.0767L53.0216 33.5807L53.0275 33.5768L53.0334 33.5729L51.3693 31.0767ZM43.1875 31.7585L41.7181 34.374L41.7293 34.3803L41.7406 34.3865L43.1875 31.7585ZM41.2415 30.1534L38.8415 31.9534L38.8483 31.9625L38.8552 31.9715L41.2415 30.1534ZM40.1903 28.6477L42.7411 27.0687L41.8615 25.6477H40.1903V28.6477ZM39.7926 28.6477V25.6477H36.7926V28.6477H39.7926ZM39.7926 32V35H42.7926V32H39.7926ZM40.5739 25.4517L37.7727 26.5258L37.7755 26.5329L40.5739 25.4517ZM42.6903 28.392L40.8671 30.7744L40.8748 30.7803L40.8825 30.7862L42.6903 28.392ZM49.608 28.3352L51.4646 30.6917L51.4677 30.6893L49.608 28.3352ZM51.7386 25.3239L48.9348 24.2567L48.9305 24.2682L51.7386 25.3239ZM51.7528 16.9432L48.943 17.9942L48.9478 18.0072L48.9528 18.0201L51.7528 16.9432ZM49.6364 14.0028L47.7945 16.3709L47.8078 16.3812L47.8211 16.3913L49.6364 14.0028ZM42.6619 13.946L44.4382 16.3637L44.4461 16.3578L44.4541 16.3519L42.6619 13.946ZM40.5597 16.8153L43.3569 17.8995L43.3597 17.8923L40.5597 16.8153ZM39.554 32V2.90909H33.554V32H39.554ZM36.554 5.90909H39.9062V-0.09091H36.554V5.90909ZM36.9062 2.90909V13.6477H42.9062V2.90909H36.9062ZM39.9062 16.6477H40.1903V10.6477H39.9062V16.6477ZM42.7057 15.2827C42.9041 14.9775 43.2042 14.5501 43.6224 13.9864L38.8038 10.4113C38.3508 11.0219 37.9691 11.5604 37.675 12.0128L42.7057 15.2827ZM43.6176 13.9928C43.7546 13.8091 44.0344 13.5341 44.5887 13.2219L41.6443 7.99403C40.5509 8.60985 39.5617 9.39541 38.8085 10.405L43.6176 13.9928ZM44.5985 13.2163C44.8136 13.0941 45.3637 12.8977 46.4972 12.8977V6.89773C44.7897 6.89773 43.086 7.17483 41.6344 7.99959L44.5985 13.2163ZM46.4972 12.8977C47.8086 12.8977 48.8446 13.2171 49.7106 13.7847L52.9996 8.76645C51.0626 7.49696 48.86 6.89773 46.4972 6.89773V12.8977ZM49.7106 13.7847C50.5954 14.3645 51.3405 15.2124 51.9174 16.4496L57.3553 13.914C56.3603 11.7801 54.9179 10.0237 52.9996 8.76645L49.7106 13.7847ZM51.9174 16.4496C52.4804 17.6571 52.8153 19.1948 52.8153 21.1477H58.8153C58.8153 18.5174 58.3643 16.0778 57.3553 13.914L51.9174 16.4496ZM52.8153 21.1477C52.8153 23.1231 52.4793 24.6767 51.9147 25.8943L57.358 28.4182C58.3654 26.2456 58.8153 23.7936 58.8153 21.1477H52.8153ZM51.9174 25.8884C51.3371 27.1329 50.5899 27.9908 49.7052 28.5806L53.0334 33.5729C54.9329 32.3066 56.3636 30.5508 57.3553 28.4241L51.9174 25.8884ZM49.717 28.5727C48.8595 29.1386 47.84 29.4545 46.554 29.4545V35.4545C48.9044 35.4545 51.0951 34.8519 53.0216 33.5807L49.717 28.5727ZM46.554 29.4545C45.4429 29.4545 44.8773 29.2642 44.6344 29.1305L41.7406 34.3865C43.1833 35.1808 44.862 35.4545 46.554 35.4545V29.4545ZM44.6569 29.143C44.0721 28.8145 43.7738 28.5269 43.6278 28.3353L38.8552 31.9715C39.6183 32.9731 40.6173 33.7556 41.7181 34.374L44.6569 29.143ZM43.6415 28.3534C43.2121 27.7809 42.9208 27.3589 42.7411 27.0687L37.6395 30.2268C37.9523 30.7321 38.3618 31.3138 38.8415 31.9534L43.6415 28.3534ZM40.1903 25.6477H39.7926V31.6477H40.1903V25.6477ZM36.7926 28.6477V32H42.7926V28.6477H36.7926ZM39.7926 29H36.554V35H39.7926V29ZM36.8494 21.0909C36.8494 23.027 37.1328 24.8569 37.7727 26.5258L43.375 24.3776C43.049 23.5276 42.8494 22.4503 42.8494 21.0909H36.8494ZM37.7755 26.5329C38.4277 28.221 39.4391 29.6816 40.8671 30.7744L44.5136 26.0097C44.0855 25.682 43.6859 25.1824 43.3723 24.3705L37.7755 26.5329ZM40.8825 30.7862C42.4101 31.9396 44.2085 32.4432 46.0994 32.4432V26.4432C45.301 26.4432 44.8267 26.246 44.4981 25.9979L40.8825 30.7862ZM46.0994 32.4432C48.0522 32.4432 49.9093 31.917 51.4646 30.6917L47.7513 25.9788C47.4316 26.2307 46.9497 26.4432 46.0994 26.4432V32.4432ZM51.4677 30.6893C52.8909 29.5649 53.9038 28.0897 54.5468 26.3795L48.9305 24.2682C48.6265 25.077 48.2189 25.6093 47.7483 25.9812L51.4677 30.6893ZM54.5424 26.391C55.1723 24.7359 55.4631 22.9568 55.4631 21.0909H49.4631C49.4631 22.3311 49.2708 23.3739 48.9348 24.2567L54.5424 26.391ZM55.4631 21.0909C55.4631 19.2477 55.1782 17.4921 54.5529 15.8662L48.9528 18.0201C49.2744 18.8564 49.4631 19.8659 49.4631 21.0909H55.4631ZM54.5627 15.8922C53.9234 14.183 52.8999 12.7151 51.4516 11.6144L47.8211 16.3913C48.2668 16.73 48.6542 17.2223 48.943 17.9942L54.5627 15.8922ZM51.4782 11.6348C49.9165 10.4201 48.0518 9.90909 46.0994 9.90909V15.9091C46.988 15.9091 47.4813 16.1272 47.7945 16.3709L51.4782 11.6348ZM46.0994 9.90909C44.2091 9.90909 42.4037 10.3976 40.8698 11.5401L44.4541 16.3519C44.7763 16.1119 45.2625 15.9091 46.0994 15.9091V9.90909ZM40.8857 11.5284C39.4308 12.5973 38.4084 14.0515 37.7596 15.7384L43.3597 17.8923C43.6579 17.117 44.037 16.6584 44.4382 16.3637L40.8857 11.5284ZM37.7624 15.7311C37.1267 17.3712 36.8494 19.1783 36.8494 21.0909H42.8494C42.8494 19.746 43.0456 18.7026 43.3569 17.8995L37.7624 15.7311ZM64.6222 31.0483L63.0147 33.5813L63.022 33.5859L64.6222 31.0483ZM61.1562 27.1136L58.4609 28.431L58.467 28.4432L61.1562 27.1136ZM61.1562 15.2528L58.464 13.9293L58.4581 13.9414L61.1562 15.2528ZM64.6222 11.304L63.022 8.76635L63.0147 8.77099L64.6222 11.304ZM74.9773 11.304L73.3698 13.837L73.3771 13.8416L74.9773 11.304ZM78.4432 15.2528L75.745 16.5643L75.7509 16.5764L78.4432 15.2528ZM78.4432 27.1136L75.7539 25.7841L75.7479 25.7963L78.4432 27.1136ZM74.9773 31.0483L73.3771 28.5107L73.3698 28.5153L74.9773 31.0483ZM73.5 28.2926L71.6344 25.9433L71.6344 25.9433L73.5 28.2926ZM75.6449 25.267L78.4574 26.3111L78.4574 26.3111L75.6449 25.267ZM75.6449 17.1278L78.4599 16.0907L78.4599 16.0907L75.6449 17.1278ZM73.5 14.0739L75.3797 11.7357L75.3797 11.7357L73.5 14.0739ZM66.1136 14.0739L64.234 11.7357L64.234 11.7357L66.1136 14.0739ZM63.9688 17.1278L61.1537 16.0907L61.1537 16.0907L63.9688 17.1278ZM63.9688 25.267L61.1563 26.3111L61.1563 26.3111L63.9688 25.267ZM66.1136 28.2926L67.9793 25.9433L67.9793 25.9433L66.1136 28.2926ZM69.8068 29.4545C68.3331 29.4545 67.1738 29.1106 66.2223 28.5107L63.022 33.5859C65.044 34.861 67.3412 35.4545 69.8068 35.4545V29.4545ZM66.2296 28.5153C65.2511 27.8943 64.4542 27.0153 63.8455 25.7841L58.467 28.4432C59.525 30.5832 61.0386 32.3273 63.0147 33.5813L66.2296 28.5153ZM63.8515 25.7963C63.2645 24.5953 62.9205 23.0925 62.9205 21.2045H56.9205C56.9205 23.8241 57.4002 26.2608 58.461 28.431L63.8515 25.7963ZM62.9205 21.2045C62.9205 19.2939 63.2659 17.7751 63.8544 16.5642L58.4581 13.9414C57.3989 16.1207 56.9205 18.5697 56.9205 21.2045H62.9205ZM63.8485 16.5764C64.4585 15.3357 65.2553 14.4553 66.2296 13.837L63.0147 8.77099C61.0344 10.0277 59.5207 11.7799 58.464 13.9293L63.8485 16.5764ZM66.2223 13.8416C67.1738 13.2416 68.3331 12.8977 69.8068 12.8977V6.89773C67.3412 6.89773 65.044 7.49132 63.022 8.76636L66.2223 13.8416ZM69.8068 12.8977C71.2809 12.8977 72.4318 13.2417 73.3698 13.837L76.5847 8.77099C74.5682 7.49123 72.2721 6.89773 69.8068 6.89773V12.8977ZM73.3771 13.8416C74.3563 14.459 75.1473 15.3344 75.745 16.5642L81.1414 13.9414C80.0914 11.7811 78.5717 10.0239 76.5774 8.76636L73.3771 13.8416ZM75.7509 16.5764C76.3447 17.7843 76.6932 19.2986 76.6932 21.2045H82.6932C82.6932 18.565 82.2083 16.1116 81.1354 13.9293L75.7509 16.5764ZM76.6932 21.2045C76.6932 23.0878 76.3462 24.5861 75.7539 25.7841L81.1325 28.4432C82.2069 26.27 82.6932 23.8289 82.6932 21.2045H76.6932ZM75.7479 25.7963C75.1515 27.0165 74.3605 27.8906 73.3771 28.5107L76.5774 33.5859C78.5675 32.331 80.0871 30.582 81.1385 28.431L75.7479 25.7963ZM73.3698 28.5153C72.4318 29.1105 71.2809 29.4545 69.8068 29.4545V35.4545C72.2721 35.4545 74.5682 34.861 76.5847 33.5813L73.3698 28.5153ZM69.8068 32.4432C71.8315 32.4432 73.7632 31.9145 75.3656 30.6419L71.6344 25.9433C71.305 26.2048 70.7745 26.4432 69.8068 26.4432V32.4432ZM75.3656 30.6419C76.795 29.5069 77.8188 28.0313 78.4574 26.3111L72.8324 24.223C72.543 25.0028 72.1368 25.5443 71.6344 25.9433L75.3656 30.6419ZM78.4574 26.3111C79.0565 24.697 79.3409 22.9859 79.3409 21.2045H73.3409C73.3409 22.3399 73.1613 23.3371 72.8324 24.223L78.4574 26.3111ZM79.3409 21.2045C79.3409 19.423 79.0565 17.7099 78.4599 16.0907L72.8299 18.165C73.1614 19.0647 73.3409 20.0695 73.3409 21.2045H79.3409ZM78.4599 16.0907C77.824 14.3647 76.8046 12.8812 75.3797 11.7357L71.6203 16.412C72.1272 16.8195 72.5377 17.3721 72.8299 18.165L78.4599 16.0907ZM75.3797 11.7357C73.7768 10.4472 71.84 9.90909 69.8068 9.90909V15.9091C70.7661 15.9091 71.2914 16.1475 71.6203 16.412L75.3797 11.7357ZM69.8068 9.90909C67.7737 9.90909 65.8368 10.4472 64.234 11.7357L67.9933 16.412C68.3223 16.1475 68.8476 15.9091 69.8068 15.9091V9.90909ZM64.234 11.7357C62.8091 12.8812 61.7896 14.3647 61.1537 16.0907L66.7838 18.165C67.0759 17.3721 67.4864 16.8195 67.9933 16.412L64.234 11.7357ZM61.1537 16.0907C60.5572 17.7099 60.2727 19.423 60.2727 21.2045H66.2727C66.2727 20.0695 66.4523 19.0647 66.7838 18.165L61.1537 16.0907ZM60.2727 21.2045C60.2727 22.9859 60.5571 24.697 61.1563 26.3111L66.7812 24.223C66.4524 23.3371 66.2727 22.3399 66.2727 21.2045H60.2727ZM61.1563 26.3111C61.7949 28.0313 62.8186 29.5069 64.248 30.6419L67.9793 25.9433C67.4768 25.5443 67.0707 25.0028 66.7812 24.223L61.1563 26.3111ZM64.248 30.6419C65.8504 31.9145 67.7821 32.4432 69.8068 32.4432V26.4432C68.8391 26.4432 68.3087 26.2048 67.9793 25.9433L64.248 30.6419ZM98.5604 10.1818V7.18182H95.5604V10.1818H98.5604ZM101.913 10.1818H104.913V7.18182H101.913V10.1818ZM101.913 32V35H104.913V32H101.913ZM98.5604 32H95.5604V35H98.5604V32ZM98.5604 28.3068H101.56V25.3068H98.5604V28.3068ZM98.3331 28.3068V25.3068H96.4136L95.6092 27.0496L98.3331 28.3068ZM95.9467 31.1335L97.6844 33.5791L97.6915 33.574L97.6985 33.5689L95.9467 31.1335ZM88.2195 31.3892L86.731 33.9939L86.7398 33.999L86.7487 34.0039L88.2195 31.3892ZM85.7195 28.6619L83.032 29.9952L83.0362 30.0036L85.7195 28.6619ZM84.8104 10.1818V7.18182H81.8104V10.1818H84.8104ZM88.1626 10.1818H91.1626V7.18182H88.1626V10.1818ZM89.4979 27.625L87.312 29.6797L87.3174 29.6855L87.3229 29.6912L89.4979 27.625ZM95.478 28.4062L94.1598 25.7113L94.1482 25.7171L95.478 28.4062ZM97.6655 26.446L95.1817 24.7635L95.1755 24.7727L95.1693 24.7819L97.6655 26.446ZM101.56 23.0795V10.1818H95.5604V23.0795H101.56ZM98.5604 13.1818H101.913V7.18182H98.5604V13.1818ZM98.9126 10.1818V32H104.913V10.1818H98.9126ZM101.913 29H98.5604V35H101.913V29ZM101.56 32V28.3068H95.5604V32H101.56ZM98.5604 25.3068H98.3331V31.3068H98.5604V25.3068ZM95.6092 27.0496C95.334 27.646 94.893 28.196 94.1949 28.6981L97.6985 33.5689C99.1595 32.518 100.309 31.1835 101.057 29.564L95.6092 27.0496ZM94.2091 28.688C93.7495 29.0145 93.0345 29.2841 91.8558 29.2841V35.2841C93.9726 35.2841 95.9849 34.7866 97.6844 33.5791L94.2091 28.688ZM91.8558 29.2841C90.9441 29.2841 90.2496 29.0891 89.6902 28.7745L86.7487 34.0039C88.3105 34.8824 90.0403 35.2841 91.8558 35.2841V29.2841ZM89.7079 28.7845C89.217 28.504 88.774 28.0629 88.4027 27.3203L83.0362 30.0036C83.877 31.6852 85.1007 33.0623 86.731 33.9939L89.7079 28.7845ZM88.4069 27.3286C88.0668 26.6432 87.8104 25.5974 87.8104 24.0455H81.8104C81.8104 26.2057 82.16 28.2375 83.032 29.9952L88.4069 27.3286ZM87.8104 24.0455V10.1818H81.8104V24.0455H87.8104ZM84.8104 13.1818H88.1626V7.18182H84.8104V13.1818ZM85.1626 10.1818V23.8182H91.1626V10.1818H85.1626ZM85.1626 23.8182C85.1626 25.9924 85.7872 28.0577 87.312 29.6797L91.6838 25.5703C91.4282 25.2984 91.1626 24.8258 91.1626 23.8182H85.1626ZM87.3229 29.6912C88.8292 31.2768 90.7814 32.0455 92.9354 32.0455V26.0455C92.3052 26.0455 91.9658 25.8671 91.6729 25.5588L87.3229 29.6912ZM92.9354 32.0455C94.296 32.0455 95.5961 31.6946 96.8078 31.0954L94.1482 25.7171C93.6363 25.9702 93.2414 26.0455 92.9354 26.0455V32.0455ZM96.7961 31.1011C98.1873 30.4207 99.3077 29.391 100.162 28.1101L95.1693 24.7819C94.849 25.2624 94.5111 25.5395 94.1598 25.7114L96.7961 31.1011ZM100.149 28.1286C101.166 26.6281 101.56 24.8747 101.56 23.0795H95.5604C95.5604 24.0116 95.3585 24.5025 95.1817 24.7635L100.149 28.1286ZM117.541 10.1818H120.541V7.18182H117.541V10.1818ZM117.541 13.0227V16.0227H120.541V13.0227H117.541ZM106.234 13.0227H103.234V16.0227H106.234V13.0227ZM106.234 10.1818V7.18182H103.234V10.1818H106.234ZM109.53 4.95455V1.95455H106.53V4.95455H109.53ZM112.882 4.95455H115.882V1.95455H112.882V4.95455ZM113.294 27.8807L110.699 29.3858L110.717 29.4167L110.735 29.4471L113.294 27.8807ZM114.374 28.8182L113.334 31.6322L113.37 31.6456L113.407 31.6581L114.374 28.8182ZM116.689 28.9886L117.163 31.951L117.22 31.9418L117.277 31.9304L116.689 28.9886ZM117.257 28.875L120.183 28.2125L119.537 25.3596L116.669 25.9333L117.257 28.875ZM117.939 31.8864L118.992 34.6954L121.443 33.7764L120.865 31.2239L117.939 31.8864ZM116.987 32.142L116.373 29.2057L116.34 29.2125L116.308 29.22L116.987 32.142ZM112.655 31.6733L111.418 34.4064L111.428 34.4112L112.655 31.6733ZM110.411 29.8125L107.958 31.5404L107.965 31.5496L107.971 31.5588L110.411 29.8125ZM114.541 10.1818V13.0227H120.541V10.1818H114.541ZM117.541 10.0227H106.234V16.0227H117.541V10.0227ZM109.234 13.0227V10.1818H103.234V13.0227H109.234ZM106.234 13.1818H117.541V7.18182H106.234V13.1818ZM109.53 7.95455H112.882V1.95455H109.53V7.95455ZM109.882 4.95455V25.75H115.882V4.95455H109.882ZM109.882 25.75C109.882 26.8887 110.03 28.2323 110.699 29.3858L115.889 26.3755C115.964 26.5053 115.955 26.5489 115.931 26.4234C115.907 26.3032 115.882 26.0873 115.882 25.75H109.882ZM110.735 29.4471C111.308 30.383 112.162 31.1991 113.334 31.6322L115.414 26.0042C115.544 26.0525 115.658 26.1232 115.744 26.198C115.826 26.2692 115.857 26.3209 115.853 26.3142L110.735 29.4471ZM113.407 31.6581C114.178 31.9206 114.974 32.0455 115.78 32.0455V26.0455C115.601 26.0455 115.46 26.0188 115.34 25.9782L113.407 31.6581ZM115.78 32.0455C116.233 32.0455 116.71 32.0235 117.163 31.951L116.215 26.0263C116.215 26.0263 116.206 26.0278 116.185 26.03C116.164 26.0322 116.135 26.0347 116.097 26.0371C116.019 26.0419 115.915 26.0455 115.78 26.0455V32.0455ZM117.277 31.9304C117.514 31.883 117.703 31.8452 117.845 31.8167L116.669 25.9333C116.527 25.9617 116.337 25.9995 116.101 26.0469L117.277 31.9304ZM114.331 29.5375L115.013 32.5488L120.865 31.2239L120.183 28.2125L114.331 29.5375ZM116.886 29.0774C116.887 29.0768 116.848 29.0912 116.752 29.1169C116.66 29.1418 116.535 29.1717 116.373 29.2057L117.602 35.0784C118.069 34.9806 118.557 34.8587 118.992 34.6954L116.886 29.0774ZM116.308 29.22C116.204 29.2442 115.936 29.2841 115.439 29.2841V35.2841C116.192 35.2841 116.956 35.2293 117.667 35.0641L116.308 29.22ZM115.439 29.2841C114.936 29.2841 114.425 29.179 113.881 28.9354L111.428 34.4112C112.703 34.982 114.047 35.2841 115.439 35.2841V29.2841ZM113.892 28.9402C113.491 28.759 113.152 28.4876 112.85 28.0662L107.971 31.5588C108.863 32.8041 110.019 33.7732 111.418 34.4064L113.892 28.9402ZM112.863 28.0846C112.711 27.869 112.53 27.4622 112.53 26.6591H106.53C106.53 28.3938 106.936 30.0893 107.958 31.5404L112.863 28.0846ZM112.53 26.6591V4.95455H106.53V26.6591H112.53Z" fill="white" fill-opacity="0.07" mask="url(#path-1-outside-1_0_1)"/>
</g>
<defs>
<clipPath id="clip0_0_1">
<rect width="137" height="34" fill="white"/>
</clipPath>
</defs>
</svg>
